# xmcd CD database file
#
# Track frame offsets:
#	150
#	27688
#	55657
#	86224
#	109229
#	132222
#	155790
#	185193
#	209992
#
# Disc length: 3082 seconds
#
# Revision: 0
# Processed by: cddbd v1.5.2PL0 Copyright (c) Steve Scherf et al.
# Submitted via: CDex 1.70beta2
#
DISCID=900c0809
DTITLE=Stefan Holweg Trio - Resilience
DYEAR=2015
DGENRE=Jazz
TTITLE0=Oben ohne
TTITLE1=Resilience
TTITLE2=Put it on the line
TTITLE3=My favourite pastime
TTITLE4=November wird es jedes Jahr
TTITLE5=Your boat
TTITLE6=Stimmung
TTITLE7=Twinkle
TTITLE8=Up down
EXTD=YEAR: 2015
EXTT0=
EXTT1=
EXTT2=
EXTT3=
EXTT4=
EXTT5=
EXTT6=
EXTT7=
EXTT8=
PLAYORDER=
